<svg width="1600" height="1200" viewBox="0 0 1600 1200" fill="none" xmlns="http://www.w3.org/2000/svg">
  <rect width="1600" height="1200" fill="url(#paint0_linear_501_9)"/>
  <circle cx="251" cy="240" r="210" fill="url(#paint1_radial_501_9)" fill-opacity="0.85"/>
  <circle cx="1308" cy="216" r="238" fill="url(#paint2_radial_501_9)" fill-opacity="0.85"/>
  <circle cx="1234" cy="944" r="280" fill="url(#paint3_radial_501_9)" fill-opacity="0.8"/>
  <path d="M178 188H608L708 288H1034" stroke="url(#paint4_linear_501_9)" stroke-width="2"/>
  <path d="M308 748H708L780 676H1134L1228 582" stroke="url(#paint5_linear_501_9)" stroke-width="2"/>
  <path d="M208 900H516L602 986H962" stroke="url(#paint6_linear_501_9)" stroke-width="2"/>
  <path d="M1136 324L1236 324L1322 410L1464 410" stroke="url(#paint7_linear_501_9)" stroke-width="2"/>
  <rect x="148" y="306" width="424" height="258" rx="28" fill="white" fill-opacity="0.05" stroke="white" stroke-opacity="0.1"/>
  <rect x="148" y="306" width="424" height="54" rx="28" fill="white" fill-opacity="0.06"/>
  <circle cx="190" cy="334" r="8" fill="#34D399"/>
  <circle cx="222" cy="334" r="8" fill="#22D3EE"/>
  <circle cx="254" cy="334" r="8" fill="#A78BFA"/>
  <path d="M210 418L250 450L210 482" stroke="#22D3EE" stroke-width="18" stroke-linecap="round" stroke-linejoin="round"/>
  <path d="M338 500H474" stroke="#A5F3FC" stroke-width="18" stroke-linecap="round"/>
  <path d="M492 418L452 450L492 482" stroke="#34D399" stroke-width="18" stroke-linecap="round" stroke-linejoin="round"/>
  <rect x="980" y="438" width="364" height="228" rx="28" fill="white" fill-opacity="0.05" stroke="white" stroke-opacity="0.1"/>
  <path d="M1036 512H1288" stroke="#A5F3FC" stroke-width="12" stroke-linecap="round"/>
  <path d="M1036 566H1206" stroke="#67E8F9" stroke-width="12" stroke-linecap="round"/>
  <path d="M1036 620H1260" stroke="#C4B5FD" stroke-width="12" stroke-linecap="round"/>
  <rect x="1026" y="712" width="278" height="118" rx="24" fill="white" fill-opacity="0.04" stroke="white" stroke-opacity="0.08"/>
  <path d="M1082 764H1234" stroke="#34D399" stroke-width="12" stroke-linecap="round"/>
  <path d="M1082 804H1172" stroke="#A5F3FC" stroke-width="12" stroke-linecap="round"/>
  <circle cx="1242" cy="764" r="14" fill="#22D3EE"/>
  <circle cx="1284" cy="764" r="14" fill="#34D399"/>
  <circle cx="926" cy="286" r="10" fill="#22D3EE"/>
  <circle cx="1034" cy="288" r="10" fill="#34D399"/>
  <circle cx="1228" cy="582" r="10" fill="#A78BFA"/>
  <circle cx="962" cy="986" r="10" fill="#22D3EE"/>
  <defs>
    <linearGradient id="paint0_linear_501_9" x1="178" y1="112" x2="1384" y2="1082" gradientUnits="userSpaceOnUse">
      <stop stop-color="#020617"/>
      <stop offset="0.51" stop-color="#0F172A"/>
      <stop offset="1" stop-color="#083344"/>
    </linearGradient>
    <radialGradient id="paint1_radial_501_9" cx="0" cy="0" r="1" gradientUnits="userSpaceOnUse" gradientTransform="translate(251 240) rotate(90) scale(210)">
      <stop stop-color="#22D3EE" stop-opacity="0.6"/>
      <stop offset="1" stop-color="#22D3EE" stop-opacity="0"/>
    </radialGradient>
    <radialGradient id="paint2_radial_501_9" cx="0" cy="0" r="1" gradientUnits="userSpaceOnUse" gradientTransform="translate(1308 216) rotate(90) scale(238)">
      <stop stop-color="#A78BFA" stop-opacity="0.4"/>
      <stop offset="1" stop-color="#A78BFA" stop-opacity="0"/>
    </radialGradient>
    <radialGradient id="paint3_radial_501_9" cx="0" cy="0" r="1" gradientUnits="userSpaceOnUse" gradientTransform="translate(1234 944) rotate(90) scale(280)">
      <stop stop-color="#34D399" stop-opacity="0.35"/>
      <stop offset="1" stop-color="#34D399" stop-opacity="0"/>
    </radialGradient>
    <linearGradient id="paint4_linear_501_9" x1="178" y1="238" x2="1034" y2="238" gradientUnits="userSpaceOnUse">
      <stop stop-color="#22D3EE" stop-opacity="0"/>
      <stop offset="0.52" stop-color="#22D3EE"/>
      <stop offset="1" stop-color="#34D399" stop-opacity="0.5"/>
    </linearGradient>
    <linearGradient id="paint5_linear_501_9" x1="308" y1="665" x2="1228" y2="665" gradientUnits="userSpaceOnUse">
      <stop stop-color="#34D399" stop-opacity="0"/>
      <stop offset="0.5" stop-color="#34D399"/>
      <stop offset="1" stop-color="#A78BFA" stop-opacity="0.6"/>
    </linearGradient>
    <linearGradient id="paint6_linear_501_9" x1="208" y1="943" x2="962" y2="943" gradientUnits="userSpaceOnUse">
      <stop stop-color="#22D3EE" stop-opacity="0"/>
      <stop offset="0.48" stop-color="#A5F3FC"/>
      <stop offset="1" stop-color="#22D3EE" stop-opacity="0.45"/>
    </linearGradient>
    <linearGradient id="paint7_linear_501_9" x1="1136" y1="367" x2="1464" y2="367" gradientUnits="userSpaceOnUse">
      <stop stop-color="#A78BFA" stop-opacity="0"/>
      <stop offset="0.5" stop-color="#A78BFA"/>
      <stop offset="1" stop-color="#22D3EE" stop-opacity="0.5"/>
    </linearGradient>
  </defs>
</svg>
