<svg xmlns="http://www.w3.org/2000/svg" viewBox="0 0 64 64" role="img" aria-labelledby="title desc">
    <title id="title">Pavol Hejny monogram</title>
    <desc id="desc">Rounded monogram logo with the letters PH.</desc>
    <defs>
        <linearGradient id="bg" x1="10%" y1="10%" x2="90%" y2="90%">
            <stop offset="0%" stop-color="#fff9ef" />
            <stop offset="100%" stop-color="#f2eadb" />
        </linearGradient>
        <linearGradient id="accent" x1="0%" y1="0%" x2="100%" y2="100%">
            <stop offset="0%" stop-color="#0f8c9d" />
            <stop offset="100%" stop-color="#d4a03f" />
        </linearGradient>
    </defs>
    <rect x="3" y="3" width="58" height="58" rx="18" fill="url(#bg)" stroke="#d6c6a8" stroke-width="2" />
    <path
        d="M17 17h10c6.6 0 10 3.3 10 9.3S33.6 36 27 36h-4v11h-6zm6 5.3v8.4h3.6c2.8 0 4.3-1.3 4.3-4.2 0-2.8-1.5-4.2-4.3-4.2z"
        fill="#102033"
    />
    <path d="M39 17h6v12h8V17h6v30h-6V34h-8v13h-6z" fill="#102033" />
    <circle cx="49.5" cy="14.5" r="4" fill="url(#accent)" />
</svg>
